<svg width="42" height="49" viewBox="0 0 42 49" fill="none" xmlns="http://www.w3.org/2000/svg">
<path fill-rule="evenodd" clip-rule="evenodd" d="M36.7244 6.47573C36.7244 8.57516 35.7253 10.4412 34.1767 11.6245C32.9837 7.21453 29.5498 3.7254 25.1724 2.45458C26.3586 0.959133 28.1916 0 30.2487 0C33.8251 0 36.7244 2.89928 36.7244 6.47573ZM23.865 5.3812C24.0512 4.28789 24.5113 3.28796 25.1724 2.45458C24.0089 2.11682 22.7788 1.93576 21.5065 1.93576C16.6048 1.93576 12.3308 4.62279 10.077 8.6042C9.87901 8.58597 9.67846 8.57666 9.47573 8.57666C5.89928 8.57666 3 11.4759 3 15.0524C3 18.6288 5.89928 21.5281 9.47573 21.5281C9.67555 21.5281 9.87324 21.5191 10.0684 21.5014C12.0063 24.9352 15.4458 27.4091 19.4956 28.0318C20.1751 30.8811 22.7376 32.9998 25.7949 32.9998C29.3714 32.9998 32.2706 30.1005 32.2706 26.5241C32.2706 25.4422 32.0053 24.4223 31.5362 23.5259C33.4671 21.2406 34.631 18.2864 34.631 15.0603C34.631 13.8715 34.473 12.7196 34.1767 11.6245C33.3294 12.2719 32.3177 12.7149 31.215 12.8799C30.394 9.19123 27.5261 6.2738 23.865 5.3812ZM23.7828 6.83629C23.077 6.64719 22.3351 6.54636 21.5697 6.54636C18.4653 6.54636 15.7483 8.20484 14.2563 10.6841C13.9149 10.3107 13.5302 9.97735 13.1104 9.69208C14.8792 6.92944 17.9753 5.0983 21.4991 5.0983C22.3143 5.0983 23.1067 5.19631 23.865 5.3812C23.8045 5.73699 23.7729 6.10268 23.7729 6.47573C23.7729 6.59672 23.7763 6.71694 23.7828 6.83629ZM13.1108 20.4124C12.2281 21.0122 11.1895 21.3996 10.0684 21.5014C8.99463 19.5986 8.3819 17.401 8.3819 15.0603C8.3819 12.7135 8.99788 10.5105 10.077 8.6042C11.1946 8.7071 12.23 9.094 13.1104 9.69208C12.1198 11.2392 11.5455 13.0785 11.5455 15.0519C11.5455 17.0256 12.12 18.8651 13.1108 20.4124ZM19.5473 24.8142C16.8494 24.2778 14.5443 22.651 13.1108 20.4124C13.5236 20.1319 13.9023 19.805 14.2393 19.4391C15.485 21.5273 17.5975 23.0383 20.0802 23.4755C19.8553 23.8962 19.6756 24.3445 19.5473 24.8142ZM29.3811 21.1312C27.5608 23.4878 24.7072 25.0055 21.4991 25.0055C20.8311 25.0055 20.1785 24.9397 19.5473 24.8142C19.3986 25.3589 19.3192 25.9322 19.3192 26.5241C19.3192 27.0432 19.3803 27.548 19.4956 28.0318C20.1512 28.1326 20.8227 28.1849 21.5065 28.1849C25.5289 28.1849 29.1287 26.3753 31.5362 23.5259C31.0297 22.5578 30.2855 21.7338 29.3811 21.1312ZM28.1581 20.4931C26.5937 22.3934 24.2232 23.6052 21.5697 23.6052C21.0616 23.6052 20.5639 23.5607 20.0802 23.4755C21.1705 21.436 23.3206 20.0484 25.7949 20.0484C26.6288 20.0484 27.426 20.206 28.1581 20.4931ZM29.829 12.9381C29.9677 12.947 30.1077 12.9515 30.2487 12.9515C30.5771 12.9515 30.8997 12.927 31.215 12.8799C31.3706 13.579 31.4527 14.3059 31.4527 15.0519C31.4527 17.341 30.6799 19.4497 29.3811 21.1312C28.9999 20.8772 28.5903 20.6626 28.1581 20.4931C29.3708 19.0199 30.0991 17.1329 30.0991 15.0758C30.0991 14.3375 30.0053 13.6212 29.829 12.9381ZM14.2393 19.4391C13.4778 18.1625 13.0403 16.6702 13.0403 15.0758C13.0403 13.4695 13.4843 11.9669 14.2563 10.6841C15.3092 11.8357 15.9515 13.369 15.9515 15.0524C15.9515 16.7447 15.3023 18.2855 14.2393 19.4391ZM29.829 12.9381C29.0631 9.97034 26.7399 7.62856 23.7828 6.83629C23.9622 10.1059 26.5672 12.7294 29.829 12.9381Z" fill="white"/>
<path d="M0.55 46V39.12H2.63L4.35 42.46L6.03 39.12H8.11V46H6.03V42.4L4.76 44.8H3.91L2.63 42.4V46H0.55ZM8.60211 46L10.5021 39.12H13.7421L15.7321 46H13.2821L13.0221 44.68H11.2421L10.9521 46H8.60211ZM11.4521 43.45H12.7821L12.1321 40.44L11.4521 43.45ZM21.3803 46.16C20.9003 46.16 20.5036 46.09 20.1903 45.95C19.877 45.8033 19.627 45.6033 19.4403 45.35C19.2536 45.0967 19.1136 44.8 19.0203 44.46C18.927 44.12 18.8636 43.7533 18.8303 43.36H18.3603V46H16.1703V39.12H19.0003C20.0936 39.12 20.8803 39.3133 21.3603 39.7C21.847 40.08 22.0903 40.5967 22.0903 41.25C22.0903 41.6433 21.9836 41.9967 21.7703 42.31C21.557 42.6167 21.2136 42.8733 20.7403 43.08C20.767 43.2267 20.7903 43.3467 20.8103 43.44C20.8303 43.5333 20.8603 43.6367 20.9003 43.75C20.987 43.99 21.0936 44.1567 21.2203 44.25C21.3536 44.3433 21.5336 44.39 21.7603 44.39C21.907 44.39 22.0536 44.37 22.2003 44.33L22.3203 45.97C22.187 46.0233 22.0436 46.0667 21.8903 46.1C21.7436 46.14 21.5736 46.16 21.3803 46.16ZM18.3603 41.99H18.7403C19.2336 41.99 19.5803 41.9367 19.7803 41.83C19.987 41.7167 20.0903 41.5267 20.0903 41.26C20.0903 41.0333 20.007 40.87 19.8403 40.77C19.6736 40.6633 19.4103 40.61 19.0503 40.61H18.3603V41.99ZM22.8281 46V39.12H27.6581V40.64H25.2581V41.86H27.4481V43.12H25.2581V44.43H27.6581V46H22.8281ZM29.9405 46L27.9005 39.12H30.2605L31.3205 43.41L32.3805 39.12H34.6405L32.4905 46H29.9405ZM34.0615 46L35.9615 39.12H39.2015L41.1915 46H38.7415L38.4815 44.68H36.7015L36.4115 46H34.0615ZM36.9115 43.45H38.2415L37.5915 40.44L36.9115 43.45Z" fill="white"/>
</svg>
