<?xml version="1.0" encoding="UTF-8" standalone="no"?>
<svg
   width="5.9007001"
   height="6.5632901"
   viewBox="0 0 5.9007001 6.5632901"
   fill="none"
   version="1.1"
   id="svg14"
   sodipodi:docname="Map_pin.svg"
   inkscape:version="1.4 (e7c3feb100, 2024-10-09)"
   xmlns:inkscape="http://www.inkscape.org/namespaces/inkscape"
   xmlns:sodipodi="http://sodipodi.sourceforge.net/DTD/sodipodi-0.dtd"
   xmlns="http://www.w3.org/2000/svg"
   xmlns:svg="http://www.w3.org/2000/svg">
  <sodipodi:namedview
     id="namedview14"
     pagecolor="#505050"
     bordercolor="#eeeeee"
     borderopacity="1"
     inkscape:showpageshadow="0"
     inkscape:pageopacity="0"
     inkscape:pagecheckerboard="0"
     inkscape:deskcolor="#505050"
     inkscape:zoom="88.375"
     inkscape:cx="2.6478076"
     inkscape:cy="3.0268741"
     inkscape:window-width="1526"
     inkscape:window-height="950"
     inkscape:window-x="0"
     inkscape:window-y="0"
     inkscape:window-maximized="1"
     inkscape:current-layer="svg14" />
  <g
     filter="url(#filter0_d_123_1238)"
     id="g1"
     transform="translate(-0.84628201,-0.97113597)">
    <path
       fill-rule="evenodd"
       clip-rule="evenodd"
       d="m 5.78394,3.65638 c 0,-1.09763 -0.8898,-1.98743 -1.98743,-1.98743 -1.09763,0 -1.98743,0.8898 -1.98743,1.98743 0,0.27172 0.05453,0.5307 0.15324,0.7666 0.40943,1.11786 1.84464,1.8833 1.84464,1.8833 0,0 1.76299,-0.94026 1.93844,-2.25846 C 5.77068,3.92126 5.78394,3.79037 5.78394,3.65638 Z"
       fill="#242d3c"
       id="path1" />
  </g>
  <path
     d="m 2.950338,0.99002403 c 0.93603,0 1.69484,0.75879997 1.69484,1.69482997 0,0.93604 -0.75881,1.69484 -1.69484,1.69484 -0.93603,0 -1.69484,-0.7588 -1.69484,-1.69484 0,-0.93603 0.75881,-1.69482997 1.69484,-1.69482997 z"
     fill="#242d3c"
     stroke="url(#paint0_linear_123_1238)"
     stroke-width="0.0883302"
     id="path2"
     style="stroke:url(#paint0_linear_123_1238)" />
  <g
     clip-path="url(#clip0_123_1238)"
     id="g6"
     transform="translate(-0.84628201,-0.97113597)">
    <path
       d="m 3.05127,3.49062 c 0.2056,0 0.35979,-0.24843 0.35979,-0.24843 0,0 0.1542,0.24843 0.3598,0.24843 0.20559,0 0.41119,-0.24843 0.41119,-0.24843 0,0 0.20559,0.24843 0.35979,0.24843"
       stroke="#000000"
       stroke-width="0.124214"
       stroke-linecap="round"
       stroke-linejoin="round"
       id="path3" />
    <path
       d="m 3.05127,3.49062 c 0.2056,0 0.35979,-0.24843 0.35979,-0.24843 0,0 0.1542,0.24843 0.3598,0.24843 0.20559,0 0.41119,-0.24843 0.41119,-0.24843 0,0 0.20559,0.24843 0.35979,0.24843"
       stroke="url(#paint1_linear_123_1238)"
       stroke-width="0.124214"
       stroke-linecap="round"
       stroke-linejoin="round"
       id="path4"
       style="stroke:url(#paint1_linear_123_1238)" />
    <path
       d="m 3.05127,4.07069 c 0.2056,0 0.35979,-0.24842 0.35979,-0.24842 0,0 0.1542,0.24842 0.3598,0.24842 0.20559,0 0.41119,-0.24842 0.41119,-0.24842 0,0 0.20559,0.24842 0.35979,0.24842"
       stroke="#000000"
       stroke-width="0.124214"
       stroke-linecap="round"
       stroke-linejoin="round"
       id="path5" />
    <path
       d="m 3.05127,4.07069 c 0.2056,0 0.35979,-0.24842 0.35979,-0.24842 0,0 0.1542,0.24842 0.3598,0.24842 0.20559,0 0.41119,-0.24842 0.41119,-0.24842 0,0 0.20559,0.24842 0.35979,0.24842"
       stroke="url(#paint2_linear_123_1238)"
       stroke-width="0.124214"
       stroke-linecap="round"
       stroke-linejoin="round"
       id="path6"
       style="stroke:url(#paint2_linear_123_1238)" />
  </g>
  <defs
     id="defs14">
    <filter
       id="filter0_d_123_1238"
       x="0.84628201"
       y="0.97113597"
       width="5.9007001"
       height="6.5632901"
       filterUnits="userSpaceOnUse"
       color-interpolation-filters="sRGB">
      <feFlood
         flood-opacity="0"
         result="BackgroundImageFix"
         id="feFlood6" />
      <feColorMatrix
         in="SourceAlpha"
         type="matrix"
         values="0 0 0 0 0 0 0 0 0 0 0 0 0 0 0 0 0 0 127 0"
         result="hardAlpha"
         id="feColorMatrix6" />
      <feOffset
         dy="0.264991"
         id="feOffset6" />
      <feGaussianBlur
         stdDeviation="0.4814"
         id="feGaussianBlur6" />
      <feComposite
         in2="hardAlpha"
         operator="out"
         id="feComposite6" />
      <feColorMatrix
         type="matrix"
         values="0 0 0 0 0.141176 0 0 0 0 0.176471 0 0 0 0 0.231373 0 0 0 0.28 0"
         id="feColorMatrix7" />
      <feBlend
         mode="normal"
         in2="BackgroundImageFix"
         result="effect1_dropShadow_123_1238"
         id="feBlend7" />
      <feBlend
         mode="normal"
         in="SourceGraphic"
         in2="effect1_dropShadow_123_1238"
         result="shape"
         id="feBlend8" />
    </filter>
    <linearGradient
       id="paint0_linear_123_1238"
       x1="3.7966199"
       y1="1.91699"
       x2="3.7966199"
       y2="5.395"
       gradientUnits="userSpaceOnUse"
       gradientTransform="translate(-0.84628201,-0.97113597)">
      <stop
         stop-color="#FF8912"
         id="stop8" />
      <stop
         offset="0.5"
         stop-color="#F6AF4B"
         id="stop9" />
      <stop
         offset="1"
         stop-color="#EDD684"
         id="stop10" />
    </linearGradient>
    <linearGradient
       id="paint1_linear_123_1238"
       x1="3.7548201"
       y1="4.0619998"
       x2="3.7548201"
       y2="3.0946801"
       gradientUnits="userSpaceOnUse">
      <stop
         stop-color="#EFF3F9"
         id="stop11" />
      <stop
         offset="1"
         stop-color="white"
         id="stop12" />
    </linearGradient>
    <linearGradient
       id="paint2_linear_123_1238"
       x1="3.7548201"
       y1="4.6420798"
       x2="3.7548201"
       y2="3.6747601"
       gradientUnits="userSpaceOnUse">
      <stop
         stop-color="#EFF3F9"
         id="stop13" />
      <stop
         offset="1"
         stop-color="white"
         id="stop14" />
    </linearGradient>
    <clipPath
       id="clip0_123_1238">
      <rect
         width="1.98743"
         height="1.98743"
         fill="#ffffff"
         transform="translate(2.80273,2.66211)"
         id="rect14"
         x="0"
         y="0" />
    </clipPath>
  </defs>
</svg>
