<svg width="8" height="8" viewBox="0 0 8 8" fill="none" xmlns="http://www.w3.org/2000/svg">
<g filter="url(#filter0_d_121_1301)">
<rect x="2.16553" y="2" width="3.64362" height="3.64362" rx="1.82181" fill="url(#paint0_linear_121_1301)" shape-rendering="crispEdges"/>
<rect x="2.24834" y="2.08281" width="3.478" height="3.478" rx="1.739" stroke="#C65235" stroke-width="0.165619" shape-rendering="crispEdges"/>
<g clip-path="url(#clip0_121_1301)">
<path d="M4.42242 4.2566C4.42242 4.32249 4.39624 4.38568 4.34965 4.43227C4.30306 4.47886 4.23987 4.50503 4.17399 4.50503C4.06763 4.50503 3.96476 4.4357 3.92944 4.34029C3.92406 4.32493 3.92493 4.30807 3.93186 4.29335C3.93879 4.27862 3.95122 4.2672 3.96648 4.26154C3.98174 4.25589 3.99861 4.25645 4.01346 4.2631C4.02831 4.26976 4.03995 4.28197 4.04589 4.29713C4.06328 4.3441 4.11964 4.38082 4.17399 4.38082C4.20693 4.38082 4.23852 4.36773 4.26182 4.34443C4.28511 4.32114 4.2982 4.28955 4.2982 4.2566C4.2982 4.22366 4.28511 4.19206 4.26182 4.16877C4.23852 4.14547 4.20693 4.13239 4.17399 4.13239H3.30449C3.28801 4.13239 3.27222 4.12584 3.26057 4.1142C3.24892 4.10255 3.24238 4.08675 3.24238 4.07028C3.24238 4.05381 3.24892 4.03801 3.26057 4.02636C3.27222 4.01472 3.28801 4.00817 3.30449 4.00817H4.17399C4.23987 4.00817 4.30306 4.03435 4.34965 4.08094C4.39624 4.12753 4.42242 4.19071 4.42242 4.2566ZM3.92556 3.63553C3.99145 3.63553 4.05463 3.60936 4.10122 3.56277C4.14781 3.51618 4.17399 3.45299 4.17399 3.3871C4.17399 3.32121 4.14781 3.25802 4.10122 3.21143C4.05463 3.16485 3.99145 3.13867 3.92556 3.13867C3.8192 3.13867 3.71633 3.208 3.68101 3.30341C3.67564 3.31877 3.6765 3.33563 3.68343 3.35036C3.69036 3.36508 3.70279 3.3765 3.71805 3.38216C3.73331 3.38782 3.75018 3.38726 3.76503 3.3806C3.77988 3.37395 3.79153 3.36173 3.79746 3.34658C3.81485 3.29961 3.87121 3.26289 3.92556 3.26289C3.9585 3.26289 3.9901 3.27597 4.01339 3.29927C4.03669 3.32256 4.04977 3.35416 4.04977 3.3871C4.04977 3.42004 4.03669 3.45164 4.01339 3.47493C3.9901 3.49823 3.9585 3.51132 3.92556 3.51132H3.18027C3.1638 3.51132 3.148 3.51786 3.13635 3.52951C3.12471 3.54115 3.11816 3.55695 3.11816 3.57342C3.11816 3.58989 3.12471 3.60569 3.13635 3.61734C3.148 3.62899 3.1638 3.63553 3.18027 3.63553H3.92556ZM4.60874 3.3871C4.50238 3.3871 4.39951 3.45643 4.36419 3.55184C4.35881 3.5672 4.35968 3.58406 4.36661 3.59878C4.37354 3.61351 4.38597 3.62493 4.40123 3.63059C4.41649 3.63624 4.43336 3.63568 4.44821 3.62903C4.46306 3.62238 4.47471 3.61016 4.48064 3.595C4.49803 3.54804 4.55439 3.51132 4.60874 3.51132C4.64168 3.51132 4.67327 3.5244 4.69657 3.5477C4.71986 3.57099 4.73295 3.60259 4.73295 3.63553C4.73295 3.66847 4.71986 3.70007 4.69657 3.72336C4.67327 3.74666 4.64168 3.75974 4.60874 3.75974H3.24238C3.22591 3.75974 3.21011 3.76629 3.19846 3.77793C3.18681 3.78958 3.18027 3.80538 3.18027 3.82185C3.18027 3.83832 3.18681 3.85412 3.19846 3.86577C3.21011 3.87741 3.22591 3.88396 3.24238 3.88396H4.60874C4.67462 3.88396 4.73781 3.85778 4.7844 3.8112C4.83099 3.76461 4.85717 3.70142 4.85717 3.63553C4.85717 3.56964 4.83099 3.50645 4.7844 3.45986C4.73781 3.41327 4.67462 3.3871 4.60874 3.3871Z" fill="url(#paint1_linear_121_1301)"/>
<path d="M4.42242 4.2566C4.42242 4.32249 4.39624 4.38568 4.34965 4.43227C4.30306 4.47886 4.23987 4.50503 4.17399 4.50503C4.06763 4.50503 3.96476 4.4357 3.92944 4.34029C3.92406 4.32493 3.92493 4.30807 3.93186 4.29335C3.93879 4.27862 3.95122 4.2672 3.96648 4.26154C3.98174 4.25589 3.99861 4.25645 4.01346 4.2631C4.02831 4.26976 4.03995 4.28197 4.04589 4.29713C4.06328 4.3441 4.11964 4.38082 4.17399 4.38082C4.20693 4.38082 4.23852 4.36773 4.26182 4.34443C4.28511 4.32114 4.2982 4.28955 4.2982 4.2566C4.2982 4.22366 4.28511 4.19206 4.26182 4.16877C4.23852 4.14547 4.20693 4.13239 4.17399 4.13239H3.30449C3.28801 4.13239 3.27222 4.12584 3.26057 4.1142C3.24892 4.10255 3.24238 4.08675 3.24238 4.07028C3.24238 4.05381 3.24892 4.03801 3.26057 4.02636C3.27222 4.01472 3.28801 4.00817 3.30449 4.00817H4.17399C4.23987 4.00817 4.30306 4.03435 4.34965 4.08094C4.39624 4.12753 4.42242 4.19071 4.42242 4.2566ZM3.92556 3.63553C3.99145 3.63553 4.05463 3.60936 4.10122 3.56277C4.14781 3.51618 4.17399 3.45299 4.17399 3.3871C4.17399 3.32121 4.14781 3.25802 4.10122 3.21143C4.05463 3.16485 3.99145 3.13867 3.92556 3.13867C3.8192 3.13867 3.71633 3.208 3.68101 3.30341C3.67564 3.31877 3.6765 3.33563 3.68343 3.35036C3.69036 3.36508 3.70279 3.3765 3.71805 3.38216C3.73331 3.38782 3.75018 3.38726 3.76503 3.3806C3.77988 3.37395 3.79153 3.36173 3.79746 3.34658C3.81485 3.29961 3.87121 3.26289 3.92556 3.26289C3.9585 3.26289 3.9901 3.27597 4.01339 3.29927C4.03669 3.32256 4.04977 3.35416 4.04977 3.3871C4.04977 3.42004 4.03669 3.45164 4.01339 3.47493C3.9901 3.49823 3.9585 3.51132 3.92556 3.51132H3.18027C3.1638 3.51132 3.148 3.51786 3.13635 3.52951C3.12471 3.54115 3.11816 3.55695 3.11816 3.57342C3.11816 3.58989 3.12471 3.60569 3.13635 3.61734C3.148 3.62899 3.1638 3.63553 3.18027 3.63553H3.92556ZM4.60874 3.3871C4.50238 3.3871 4.39951 3.45643 4.36419 3.55184C4.35881 3.5672 4.35968 3.58406 4.36661 3.59878C4.37354 3.61351 4.38597 3.62493 4.40123 3.63059C4.41649 3.63624 4.43336 3.63568 4.44821 3.62903C4.46306 3.62238 4.47471 3.61016 4.48064 3.595C4.49803 3.54804 4.55439 3.51132 4.60874 3.51132C4.64168 3.51132 4.67327 3.5244 4.69657 3.5477C4.71986 3.57099 4.73295 3.60259 4.73295 3.63553C4.73295 3.66847 4.71986 3.70007 4.69657 3.72336C4.67327 3.74666 4.64168 3.75974 4.60874 3.75974H3.24238C3.22591 3.75974 3.21011 3.76629 3.19846 3.77793C3.18681 3.78958 3.18027 3.80538 3.18027 3.82185C3.18027 3.83832 3.18681 3.85412 3.19846 3.86577C3.21011 3.87741 3.22591 3.88396 3.24238 3.88396H4.60874C4.67462 3.88396 4.73781 3.85778 4.7844 3.8112C4.83099 3.76461 4.85717 3.70142 4.85717 3.63553C4.85717 3.56964 4.83099 3.50645 4.7844 3.45986C4.73781 3.41327 4.67462 3.3871 4.60874 3.3871Z" fill="#C65235"/>
</g>
</g>
<defs>
<filter id="filter0_d_121_1301" x="0.360278" y="0.691608" width="7.25405" height="7.25405" filterUnits="userSpaceOnUse" color-interpolation-filters="sRGB">
<feFlood flood-opacity="0" result="BackgroundImageFix"/>
<feColorMatrix in="SourceAlpha" type="matrix" values="0 0 0 0 0 0 0 0 0 0 0 0 0 0 0 0 0 0 127 0" result="hardAlpha"/>
<feOffset dy="0.496858"/>
<feGaussianBlur stdDeviation="0.902625"/>
<feComposite in2="hardAlpha" operator="out"/>
<feColorMatrix type="matrix" values="0 0 0 0 0.141176 0 0 0 0 0.176471 0 0 0 0 0.231373 0 0 0 0.28 0"/>
<feBlend mode="normal" in2="BackgroundImageFix" result="effect1_dropShadow_121_1301"/>
<feBlend mode="normal" in="SourceGraphic" in2="effect1_dropShadow_121_1301" result="shape"/>
</filter>
<linearGradient id="paint0_linear_121_1301" x1="3.88532" y1="14.024" x2="3.88532" y2="-0.163401" gradientUnits="userSpaceOnUse">
<stop stop-color="#EFF3F9"/>
<stop offset="1" stop-color="white"/>
</linearGradient>
<linearGradient id="paint1_linear_121_1301" x1="3.93897" y1="7.64766" x2="3.93897" y2="2.3274" gradientUnits="userSpaceOnUse">
<stop stop-color="#EFF3F9"/>
<stop offset="1" stop-color="white"/>
</linearGradient>
<clipPath id="clip0_121_1301">
<rect width="1.98743" height="1.98743" fill="white" transform="translate(2.99365 2.82812)"/>
</clipPath>
</defs>
</svg>
